# xmcd CD database file
#
# Track frame offsets:
#	150
#	30300
#	44530
#	55322
#	67847
#	87661
#	104586
#	117239
#	137422
#	156841
#	174183
#	196228
#	226503
#	252865
#	281143
#	300303
#
# Disc length: 4483 seconds
#
# Revision: 0
# Processed by: cddbd v1.5.2PL0 Copyright (c) Steve Scherf et al.
# Submitted via: CDex 1.70beta2
#
DISCID=cc118110
DTITLE=Various Artist - Montecarlo Nights - Nouveau Beat 01 - CD 1
DYEAR=2001
DGENRE=Jazz
TTITLE0=Acoustic Alchemy - Angel Of The South
TTITLE1=Hil St Soul - Until You Come Back To Me
TTITLE2=Marc Jordan - This Is How Men Cry
TTITLE3=Thievery Corporation - So Com Voce
TTITLE4=Jacky Terrasson - Les Chemins De L'amour
TTITLE5=Hooverphonic - Mad About You
TTITLE6=Henri Salavador - Jardin D'hiver
TTITLE7=Courtney Pine - Hardtimes
TTITLE8=Larry Carlton - Til I Hurt You
TTITLE9=Bent - Swollen
TTITLE10=Tuck and Patti - Ready To Love
TTITLE11=Cannonball Adderley - Corcovado
TTITLE12=Erykah Badu - Bag Lady
TTITLE13=Moby - Flying Foxes
TTITLE14=Goldfrapp - Utopia
TTITLE15=Rachelle Ferrell - I Can Explain
EXTD=YEAR: 2001
EXTT0=
EXTT1=
EXTT2=
EXTT3=
EXTT4=
EXTT5=
EXTT6=
EXTT7=
EXTT8=
EXTT9=
EXTT10=
EXTT11=
EXTT12=
EXTT13=
EXTT14=
EXTT15=
PLAYORDER=
